<?xml version="1.0" standalone="no"?>
<!DOCTYPE svg PUBLIC "-//W3C//DTD SVG 20010904//EN"
 "http://www.w3.org/TR/2001/REC-SVG-20010904/DTD/svg10.dtd">
<svg version="1.0" xmlns="http://www.w3.org/2000/svg"
 width="500.000000pt" height="500.000000pt" viewBox="0 0 500.000000 500.000000"
 preserveAspectRatio="xMidYMid meet">

<g transform="translate(0.000000,500.000000) scale(0.100000,-0.100000)"
fill="#000000" stroke="none">
<path d="M1937 4977 c-21 -13 -35 -25 -32 -28 3 -3 -1 -6 -8 -6 -20 0 -88 -46
-142 -97 -27 -26 -56 -52 -62 -58 -22 -18 -14 6 12 36 36 42 31 43 -13 5 -42
-37 -89 -96 -118 -147 -25 -44 -118 -138 -154 -157 -16 -8 -31 -24 -35 -35 -8
-26 -56 -100 -65 -100 -4 0 -11 10 -17 22 -9 20 -11 17 -17 -27 -4 -28 -16
-83 -27 -124 -10 -41 -19 -90 -19 -108 0 -45 -32 -106 -69 -133 -30 -21 -30
-21 -11 -40 19 -19 25 -34 20 -55 -1 -5 -6 -42 -11 -82 -4 -39 -17 -91 -27
-115 -43 -95 -47 -115 -34 -166 7 -26 22 -60 33 -75 27 -37 20 -43 -17 -15
l-29 23 22 -36 c11 -20 24 -50 28 -67 5 -24 3 -31 -13 -36 -30 -10 -49 2 -71
47 l-20 42 6 -50 c3 -27 13 -61 21 -74 18 -26 68 -51 105 -51 22 0 62 -30 41
-30 -5 0 -2 -5 6 -10 8 -5 38 -10 67 -10 62 0 61 2 61 -132 1 -84 -2 -99 -17
-110 -35 -24 -53 -145 -32 -201 11 -29 46 -44 66 -27 10 8 15 8 21 -1 16 -26
37 -149 39 -234 2 -49 8 -110 13 -135 19 -83 41 -153 51 -159 5 -4 17 -34 27
-68 17 -62 44 -103 67 -103 7 0 17 -11 24 -25 6 -14 7 -25 2 -25 -5 0 -9 -10
-9 -22 0 -19 2 -20 11 -8 8 11 12 12 16 2 2 -6 8 -10 13 -7 4 2 36 -26 72 -63
35 -37 80 -81 99 -97 46 -40 80 -90 74 -107 -3 -8 4 -23 15 -35 11 -12 20 -27
20 -33 0 -5 10 -10 23 -11 20 0 21 -1 2 -8 -18 -7 -18 -9 7 -25 15 -10 34 -19
43 -20 14 -2 47 -25 89 -61 44 -39 126 -94 154 -103 18 -6 40 -18 48 -27 8 -8
24 -15 34 -15 25 0 50 -37 50 -75 0 -16 6 -41 13 -55 20 -40 22 -144 3 -159
-9 -8 -16 -26 -16 -40 0 -32 -37 -71 -68 -71 -37 0 -96 49 -134 112 -20 34
-45 63 -55 64 -9 2 -23 10 -29 18 -7 10 -26 16 -48 16 -86 0 -277 132 -329
227 -29 55 -40 132 -52 363 -3 69 -8 140 -11 158 l-5 33 -31 -26 c-24 -20 -33
-23 -39 -13 -7 10 -9 9 -9 -4 0 -9 -13 -24 -29 -35 -38 -24 -141 -122 -141
-134 0 -5 -5 -9 -11 -9 -5 0 -8 -4 -4 -9 3 -5 -1 -15 -8 -23 -15 -16 -107
-199 -107 -215 0 -6 -7 -16 -15 -23 -8 -7 -15 -24 -15 -39 0 -14 -6 -38 -14
-52 -49 -94 -64 -266 -39 -459 8 -63 16 -137 19 -165 3 -27 13 -70 24 -95 45
-110 80 -210 79 -227 0 -10 -4 -27 -8 -38 -7 -17 -13 -11 -35 40 -18 39 -25
70 -22 88 4 20 1 29 -12 34 -24 10 -42 29 -42 47 0 16 -20 67 -30 76 -3 3 -11
30 -17 60 -6 30 -17 69 -24 85 -13 28 -14 24 -19 -65 -3 -54 -9 -90 -13 -82
-5 6 -5 12 -1 12 3 0 -1 12 -10 26 -10 14 -21 44 -26 67 -7 39 -8 40 -9 10 -1
-22 -6 -33 -16 -33 -20 0 -20 -68 0 -117 8 -19 15 -52 15 -72 0 -20 5 -52 11
-71 6 -19 12 -45 14 -58 2 -13 8 -29 14 -36 12 -14 4 -73 -10 -82 -5 -3 -9
-20 -10 -37 l-1 -32 -10 31 c-5 16 -19 34 -31 40 -22 9 -27 24 -48 124 -19 95
-30 130 -39 130 -6 0 -10 -7 -10 -15 0 -8 -4 -15 -10 -15 -5 0 -10 5 -10 10 0
6 -5 10 -11 10 -22 0 17 -345 44 -399 9 -19 17 -49 17 -68 0 -28 -3 -33 -24
-33 -26 0 -36 21 -36 80 0 20 -4 40 -9 45 -8 10 -34 182 -47 318 -12 129 -19
54 -19 -224 l0 -279 2098 0 2097 0 0 1080 0 1080 -70 0 c-63 0 -70 2 -70 20 0
11 -4 20 -10 20 -5 0 -10 -8 -10 -19 0 -24 -35 -31 -151 -31 -59 0 -89 4 -89
11 0 8 -18 10 -57 5 -32 -3 -86 -9 -120 -12 -44 -4 -63 -11 -63 -20 0 -10 -14
-14 -50 -14 -27 0 -50 5 -50 10 0 6 -9 10 -20 10 -11 0 -20 -4 -20 -10 0 -6
-43 -10 -110 -10 -67 0 -110 -4 -110 -10 0 -6 -40 -10 -100 -10 -60 0 -100 4
-100 10 0 6 -4 10 -10 10 -5 0 -10 -9 -10 -20 0 -17 -7 -20 -50 -20 -43 0 -50
-3 -50 -20 0 -13 -7 -20 -20 -20 -13 0 -20 7 -20 20 0 11 -4 20 -10 20 -5 0
-10 9 -10 20 0 13 7 20 20 20 22 0 27 25 7 33 -22 8 -19 65 4 72 10 4 19 11
19 16 0 6 -5 7 -12 3 -7 -4 -8 -3 -4 4 4 7 22 12 40 12 18 0 48 10 66 23 58
39 70 80 16 56 -20 -10 -29 -10 -38 -1 -7 7 -22 12 -34 12 -12 0 -26 6 -31 12
-13 17 -15 71 -3 63 11 -7 24 39 17 59 -4 10 0 12 14 9 15 -4 19 0 19 23 0 23
-2 26 -10 14 -8 -12 -10 -12 -10 -1 0 8 27 45 60 82 48 53 62 78 69 116 23
118 45 199 64 232 12 22 22 62 25 102 l5 67 35 -15 c24 -10 38 -11 45 -4 6 6
34 11 61 11 71 1 109 17 201 87 100 76 134 113 174 187 47 90 38 96 -34 18
-52 -56 -70 -69 -88 -65 -18 4 -19 3 -7 -6 12 -9 11 -11 -8 -11 -15 0 -21 -4
-16 -12 5 -7 0 -9 -14 -6 -13 4 -23 0 -26 -8 -3 -8 -10 -14 -16 -14 -6 0 -8 5
-5 10 3 6 -1 10 -9 10 -9 0 -16 4 -16 9 0 5 -15 12 -32 16 l-33 7 30 9 c17 5
48 7 70 4 24 -3 35 -2 27 3 -12 8 21 16 95 24 7 1 10 4 7 7 -3 3 -42 6 -87 7
-45 0 -101 7 -125 14 l-43 13 6 51 c5 39 2 66 -13 108 -11 31 -17 60 -14 63 4
4 2 5 -5 3 -6 -1 -29 26 -51 62 l-40 65 33 19 c39 22 100 122 114 187 10 44 0
157 -16 182 -4 6 -16 -21 -29 -59 -15 -48 -23 -61 -23 -41 -1 39 -18 33 -25
-9 -6 -28 -10 -33 -20 -24 -8 6 -16 21 -19 33 -2 12 -18 59 -35 105 -33 91
-80 154 -128 171 -37 14 -70 48 -117 121 -45 71 -69 98 -83 93 -13 -4 -54 43
-54 63 0 20 -299 318 -354 353 l-50 31 -605 0 -606 0 -38 -23z m1356 -86 l32
-34 -47 33 c-27 18 -56 42 -65 53 -18 20 -18 20 15 1 18 -10 47 -34 65 -53z
m-1022 -190 c35 -11 98 -28 139 -38 82 -19 180 -67 180 -88 0 -7 -9 -15 -20
-18 -18 -5 -25 -25 -23 -74 1 -7 -6 -13 -13 -13 -10 0 -14 -10 -12 -33 1 -18
-1 -38 -5 -44 -4 -7 -12 -55 -17 -109 -5 -53 -14 -102 -19 -107 -6 -6 -11 -18
-11 -27 0 -8 -15 -22 -32 -29 -18 -8 -39 -21 -46 -28 -7 -7 -26 -13 -41 -13
-26 0 -29 -5 -41 -52 -6 -29 -13 -79 -14 -111 -1 -43 -7 -62 -23 -78 -20 -20
-50 -19 -38 2 9 13 -142 -1 -190 -18 -22 -8 -71 -17 -110 -20 -46 -4 -78 -12
-94 -24 -13 -11 -30 -19 -38 -19 -8 0 -21 -7 -30 -15 -8 -9 -28 -19 -44 -22
-16 -3 -29 -11 -29 -18 0 -8 -15 -18 -34 -25 -40 -13 -76 -42 -76 -61 0 -8 5
-6 14 6 11 15 26 18 82 17 39 0 70 -5 72 -11 2 -6 24 -11 48 -11 27 0 62 -9
87 -22 l42 -22 -40 -12 -40 -12 32 -1 c48 -1 33 -23 -35 -51 -81 -33 -192
-114 -192 -140 0 -17 20 -21 42 -8 13 7 26 11 31 10 4 -1 7 3 7 8 0 6 4 10 10
10 5 0 23 14 38 30 16 17 32 30 35 30 3 0 8 -13 12 -29 7 -32 23 -49 64 -68
25 -11 24 -11 -16 -12 -23 -1 -45 -5 -48 -11 -3 -5 1 -10 9 -10 21 0 20 -17 0
-28 -25 -14 33 -33 111 -37 66 -4 136 -21 132 -33 -2 -8 7 -12 31 -12 20 0 91
65 102 95 5 12 3 26 -5 35 -8 9 -11 27 -8 42 4 23 9 27 28 22 21 -5 25 0 39
47 9 29 16 62 16 74 0 12 10 31 23 43 23 22 111 47 129 36 6 -4 21 -32 35 -63
27 -59 26 -55 20 -461 0 -19 5 -62 11 -95 19 -107 21 -100 -19 -103 -21 -2
-45 -12 -54 -23 -10 -10 -24 -19 -32 -19 -12 0 -17 -13 -14 -33 1 -4 -15 -5
-34 -1 -66 12 -115 -27 -115 -92 0 -14 7 -27 18 -31 9 -4 28 -15 41 -25 18
-14 20 -18 7 -18 -13 0 -15 -6 -10 -25 5 -21 3 -24 -10 -19 -9 4 -16 3 -15 -2
3 -20 -2 -34 -13 -34 -11 0 -17 -4 -74 -57 -17 -15 -48 -37 -68 -48 -21 -11
-49 -30 -62 -42 -14 -13 -34 -23 -44 -23 -22 0 -73 -44 -63 -53 3 -4 -1 -7
-10 -7 -11 0 -17 -8 -17 -25 0 -14 -6 -28 -14 -31 -23 -9 -26 -43 -9 -115 10
-45 20 -69 29 -69 15 0 18 -18 8 -44 -3 -9 -10 -13 -15 -10 -5 3 -6 -8 -3 -24
4 -21 2 -31 -10 -35 -9 -4 -16 -16 -16 -27 0 -11 -3 -20 -7 -20 -12 0 -73 63
-73 75 0 6 -22 27 -49 47 -32 24 -53 49 -61 72 -6 20 -15 36 -19 36 -3 0 -26
27 -50 60 -24 33 -52 62 -61 65 -24 8 -40 56 -40 122 0 34 -4 52 -10 48 -6 -4
-10 8 -10 29 0 48 -10 72 -22 54 -7 -9 -8 -8 -4 6 4 10 0 26 -8 35 -12 14 -33
113 -65 311 -12 71 -36 535 -35 665 1 85 5 110 28 168 25 61 28 81 30 205 2
103 6 146 19 174 10 21 19 56 22 78 6 50 72 183 128 259 83 114 167 181 309
250 85 41 262 51 359 22z m409 -667 c0 -56 -4 -71 -25 -96 -14 -16 -25 -36
-25 -43 0 -24 -35 -75 -51 -75 -13 0 -18 15 -23 68 -3 37 -9 90 -12 118 -6 47
-4 52 15 59 11 3 21 13 21 21 0 10 13 14 50 14 l50 0 0 -66z m1254 -41 c18
-51 8 -93 -23 -93 -33 0 -45 25 -33 72 6 24 9 56 7 71 -3 27 -3 28 15 12 10
-9 26 -37 34 -62z m71 -291 c-3 -3 -18 7 -33 23 l-27 28 33 -23 c18 -12 31
-25 27 -28z m-2118 -258 c-3 -3 -12 -4 -19 -1 -8 3 -5 6 6 6 11 1 17 -2 13 -5z
m558 -783 c-7 -24 -43 -28 -52 -6 -3 9 3 25 13 36 15 17 20 18 32 5 9 -8 11
-22 7 -35z m-80 -437 c42 -20 44 -31 8 -46 -64 -27 -110 -97 -65 -99 12 0 9
-4 -9 -12 -14 -7 -34 -19 -44 -27 -9 -8 -25 -19 -35 -25 -9 -5 -30 -19 -45
-29 -23 -17 -31 -18 -59 -8 -18 7 -40 12 -49 12 -20 0 -37 38 -37 83 0 40 57
126 85 128 43 3 61 7 87 21 39 21 121 22 163 2z m-448 -336 c-3 -7 -5 -2 -5
12 0 14 2 19 5 13 2 -7 2 -19 0 -25z m338 -19 c77 14 157 14 133 0 -10 -5 -18
-21 -18 -34 0 -29 -45 -85 -69 -85 -9 0 -22 -5 -28 -11 -7 -7 -30 -12 -52 -13
-33 -1 -41 2 -41 17 0 10 -4 16 -9 13 -5 -3 -11 11 -14 31 -5 27 -2 40 8 46 8
4 15 18 15 30 0 16 3 18 9 9 6 -11 20 -11 66 -3z m-608 -311 c-3 -8 -6 -5 -6
6 -1 11 2 17 5 13 3 -3 4 -12 1 -19z m27 -212 c14 -25 31 -48 36 -51 6 -3 10
-23 10 -43 0 -47 42 -121 110 -191 l51 -54 0 -126 c0 -72 5 -148 13 -176 8
-32 10 -80 7 -135 l-6 -85 -19 43 c-10 23 -22 42 -26 42 -10 0 -48 79 -55 114
-3 16 -14 30 -25 33 -13 4 -20 14 -20 30 0 13 -6 36 -14 51 -7 15 -19 54 -26
87 -6 33 -20 98 -31 145 -10 47 -23 116 -29 154 -6 38 -14 74 -17 79 -15 25
-22 174 -10 226 l12 54 6 -76 c5 -56 13 -88 33 -121z m-486 -286 c0 -9 -3 -7
-8 5 -5 11 -8 29 -8 40 0 16 2 15 8 -5 4 -14 8 -32 8 -40z m1292 20 c0 -23 -4
-24 -31 -10 -27 15 -24 30 6 30 18 0 25 -5 25 -20z m-563 -537 c-2 -16 -4 -3
-4 27 0 30 2 43 4 28 2 -16 2 -40 0 -55z m-581 -249 c-4 -9 -9 -15 -11 -12 -3
3 -3 13 1 22 4 9 9 15 11 12 3 -3 3 -13 -1 -22z"/>
<path d="M1710 3600 c0 -13 11 -13 30 0 12 8 11 10 -7 10 -13 0 -23 -4 -23
-10z"/>
<path d="M1694 3468 l-29 -33 33 29 c30 28 37 36 29 36 -2 0 -16 -15 -33 -32z"/>
<path d="M1792 1053 c9 -10 25 -36 37 -58 17 -32 21 -35 21 -17 0 24 -48 92
-64 92 -5 0 -2 -8 6 -17z"/>
<path d="M1306 4453 c-6 -14 -5 -15 5 -6 7 7 10 15 7 18 -3 3 -9 -2 -12 -12z"/>
<path d="M4325 3360 c3 -5 8 -10 11 -10 2 0 4 5 4 10 0 6 -5 10 -11 10 -5 0
-7 -4 -4 -10z"/>
<path d="M1165 3106 c-48 -48 -46 -126 7 -233 l33 -68 6 92 c8 102 36 177 69
186 47 12 1 47 -61 47 -18 0 -39 -9 -54 -24z"/>
<path d="M1525 1910 c-3 -5 -1 -10 4 -10 6 0 11 5 11 10 0 6 -2 10 -4 10 -3 0
-8 -4 -11 -10z"/>
<path d="M24 1688 c-10 -31 -17 -1059 -7 -1069 5 -5 20 -3 33 5 14 7 54 29 90
48 36 20 76 39 90 43 13 4 30 14 38 21 7 8 24 14 38 14 13 0 24 4 24 8 0 5 19
16 42 26 79 34 123 57 178 91 30 19 73 44 96 55 22 10 47 26 54 35 7 8 21 15
32 15 19 0 50 14 72 31 6 5 26 20 44 35 22 18 32 34 32 54 0 19 11 37 35 59
20 17 34 31 31 31 -3 0 18 23 45 51 27 28 49 54 49 59 0 5 9 11 19 15 10 3 22
17 25 31 4 14 22 41 41 60 21 21 35 45 35 59 0 25 35 101 51 111 5 3 9 11 9
17 0 9 -89 11 -370 9 -250 -2 -370 1 -370 8 0 6 -32 10 -80 10 -47 0 -80 4
-80 10 0 6 -33 10 -80 10 -73 0 -80 -2 -80 -20 0 -17 -7 -20 -40 -20 l-40 0 0
40 c0 29 -4 40 -15 40 -8 0 -15 7 -15 15 0 23 -17 18 -26 -7z m26 -48 c0 -22
-4 -40 -10 -40 -5 0 -10 18 -10 40 0 22 5 40 10 40 6 0 10 -18 10 -40z"/>
<path d="M1327 1694 c-4 -4 -7 -14 -7 -23 0 -11 3 -12 11 -4 6 6 10 16 7 23
-2 6 -7 8 -11 4z"/>
<path d="M1241 1668 c-11 -28 -3 -39 10 -15 6 9 17 17 25 17 8 0 12 5 9 10
-11 18 -35 11 -44 -12z"/>
<path d="M1000 1660 c0 -11 5 -20 10 -20 6 0 10 9 10 20 0 11 -4 20 -10 20 -5
0 -10 -9 -10 -20z"/>
<path d="M1084 1075 c-8 -54 -1 -84 26 -115 11 -13 20 -28 20 -33 0 -6 2 -8 4
-6 3 2 -2 31 -10 64 -7 33 -14 77 -14 98 0 52 -17 47 -26 -8z"/>
<path d="M861 1013 c-7 -16 -15 -55 -17 -88 l-4 -60 15 45 c16 48 30 130 23
130 -3 0 -10 -12 -17 -27z"/>
<path d="M907 923 c-11 -10 -8 -53 3 -53 6 0 10 14 10 30 0 31 -2 35 -13 23z"/>
<path d="M645 903 c-48 -25 -76 -55 -96 -101 -29 -67 -23 -83 14 -37 18 21 51
59 74 85 23 25 43 51 43 58 0 15 2 15 -35 -5z"/>
<path d="M726 905 c-4 -11 -14 -31 -21 -45 -8 -14 -28 -80 -46 -145 -26 -101
-32 -143 -36 -265 -3 -80 -11 -162 -18 -184 -11 -36 -13 -26 -19 125 -7 155
-6 170 19 274 14 61 28 116 30 123 7 19 -25 14 -32 -5 -4 -10 -10 -20 -14 -23
-3 -3 -18 -41 -32 -86 -20 -64 -27 -111 -32 -225 -4 -79 -11 -151 -16 -159 -4
-8 -9 -13 -9 -10 0 3 -9 97 -20 210 -11 113 -20 213 -20 223 0 9 -4 17 -9 17
-17 0 -31 -56 -36 -142 -6 -109 -12 -135 -34 -141 -23 -6 -51 -61 -51 -99 0
-19 -5 -28 -16 -28 -12 0 -14 7 -9 30 4 17 3 30 -2 30 -14 0 -53 111 -53 153
0 17 -5 27 -15 27 -11 0 -15 -11 -15 -36 0 -80 -54 -104 -83 -36 -9 20 -18 48
-19 62 -3 29 -31 34 -36 8 -2 -10 8 -43 22 -74 31 -67 33 -108 8 -126 -11 -7
-24 -23 -31 -36 -7 -13 -23 -27 -37 -32 -16 -7 -24 -17 -24 -34 0 -14 -4 -28
-10 -31 -6 -4 -10 -53 -10 -116 l0 -109 395 0 c220 0 395 4 395 9 0 5 -7 25
-15 44 -10 25 -15 71 -15 145 0 72 -5 119 -14 138 -17 36 -40 342 -31 410 4
27 11 61 16 75 6 15 9 44 7 65 -3 31 -5 35 -12 19z"/>
<path d="M270 680 c-13 -9 -13 -10 0 -9 8 0 24 4 35 9 l20 9 -20 0 c-11 0 -27
-4 -35 -9z"/>
<path d="M870 637 c0 -20 4 -37 9 -37 10 0 9 55 -2 66 -4 4 -7 -9 -7 -29z"/>
</g>
</svg>
